<mxfile host="65bd71144e" modified="2020-12-09T11:25:46.753Z" agent="5.0 (X11; Linux x86_64) AppleWebKit/537.36 (KHTML, like Gecko) Code/1.51.1 Chrome/83.0.4103.122 Electron/9.3.3 Safari/537.36" etag="b_x15D7mEunsRTYMPR_A" version="13.10.0" type="embed">
    <diagram id="MqsroaE28i_2Dyc1EJq7" name="Page-1">
        <mxGraphModel dx="2177" dy="1747" grid="1" gridSize="10" guides="1" tooltips="1" connect="1" arrows="1" fold="1" page="1" pageScale="1" pageWidth="827" pageHeight="1169" math="0" shadow="0">
            <root>
                <mxCell id="0"/>
                <mxCell id="1" parent="0"/>
                <mxCell id="N7SgdnH1DWZHhyA-m8kh-8" value="ordenador" style="swimlane;fontStyle=0;childLayout=stackLayout;horizontal=1;startSize=26;horizontalStack=0;resizeParent=1;resizeParentMax=0;resizeLast=0;collapsible=1;marginBottom=0;align=center;fontSize=14;" parent="1" vertex="1">
                    <mxGeometry x="-20" y="52" width="160" height="116" as="geometry"/>
                </mxCell>
                <mxCell id="N7SgdnH1DWZHhyA-m8kh-10" value="id" style="text;strokeColor=none;fillColor=none;spacingLeft=4;spacingRight=4;overflow=hidden;rotatable=0;points=[[0,0.5],[1,0.5]];portConstraint=eastwest;fontSize=12;" parent="N7SgdnH1DWZHhyA-m8kh-8" vertex="1">
                    <mxGeometry y="26" width="160" height="30" as="geometry"/>
                </mxCell>
                <mxCell id="N7SgdnH1DWZHhyA-m8kh-11" value="localizacion_taller" style="text;strokeColor=none;fillColor=none;spacingLeft=4;spacingRight=4;overflow=hidden;rotatable=0;points=[[0,0.5],[1,0.5]];portConstraint=eastwest;fontSize=12;" parent="N7SgdnH1DWZHhyA-m8kh-8" vertex="1">
                    <mxGeometry y="56" width="160" height="30" as="geometry"/>
                </mxCell>
                <mxCell id="N7SgdnH1DWZHhyA-m8kh-81" value="observaciones" style="text;strokeColor=none;fillColor=none;spacingLeft=4;spacingRight=4;overflow=hidden;rotatable=0;points=[[0,0.5],[1,0.5]];portConstraint=eastwest;fontSize=12;" parent="N7SgdnH1DWZHhyA-m8kh-8" vertex="1">
                    <mxGeometry y="86" width="160" height="30" as="geometry"/>
                </mxCell>
                <mxCell id="N7SgdnH1DWZHhyA-m8kh-13" value="componente" style="swimlane;fontStyle=0;childLayout=stackLayout;horizontal=1;startSize=26;horizontalStack=0;resizeParent=1;resizeParentMax=0;resizeLast=0;collapsible=1;marginBottom=0;align=center;fontSize=14;" parent="1" vertex="1">
                    <mxGeometry x="-180" y="278" width="160" height="146" as="geometry"/>
                </mxCell>
                <mxCell id="N7SgdnH1DWZHhyA-m8kh-14" value="id&#10;" style="text;strokeColor=none;fillColor=none;spacingLeft=4;spacingRight=4;overflow=hidden;rotatable=0;points=[[0,0.5],[1,0.5]];portConstraint=eastwest;fontSize=12;" parent="N7SgdnH1DWZHhyA-m8kh-13" vertex="1">
                    <mxGeometry y="26" width="160" height="30" as="geometry"/>
                </mxCell>
                <mxCell id="N7SgdnH1DWZHhyA-m8kh-15" value="estado" style="text;strokeColor=none;fillColor=none;spacingLeft=4;spacingRight=4;overflow=hidden;rotatable=0;points=[[0,0.5],[1,0.5]];portConstraint=eastwest;fontSize=12;" parent="N7SgdnH1DWZHhyA-m8kh-13" vertex="1">
                    <mxGeometry y="56" width="160" height="30" as="geometry"/>
                </mxCell>
                <mxCell id="N7SgdnH1DWZHhyA-m8kh-49" value="observaciones" style="text;strokeColor=none;fillColor=none;spacingLeft=4;spacingRight=4;overflow=hidden;rotatable=0;points=[[0,0.5],[1,0.5]];portConstraint=eastwest;fontSize=12;" parent="N7SgdnH1DWZHhyA-m8kh-13" vertex="1">
                    <mxGeometry y="86" width="160" height="30" as="geometry"/>
                </mxCell>
                <mxCell id="N7SgdnH1DWZHhyA-m8kh-109" value="fecha_entrada&#10;" style="text;strokeColor=none;fillColor=none;spacingLeft=4;spacingRight=4;overflow=hidden;rotatable=0;points=[[0,0.5],[1,0.5]];portConstraint=eastwest;fontSize=12;" parent="N7SgdnH1DWZHhyA-m8kh-13" vertex="1">
                    <mxGeometry y="116" width="160" height="30" as="geometry"/>
                </mxCell>
                <mxCell id="N7SgdnH1DWZHhyA-m8kh-76" style="edgeStyle=orthogonalEdgeStyle;rounded=0;orthogonalLoop=1;jettySize=auto;html=1;endArrow=classic;endFill=1;" parent="1" source="N7SgdnH1DWZHhyA-m8kh-19" target="N7SgdnH1DWZHhyA-m8kh-8" edge="1">
                    <mxGeometry relative="1" as="geometry">
                        <Array as="points">
                            <mxPoint x="60" y="230"/>
                            <mxPoint x="60" y="230"/>
                        </Array>
                    </mxGeometry>
                </mxCell>
                <mxCell id="N7SgdnH1DWZHhyA-m8kh-140" style="edgeStyle=orthogonalEdgeStyle;rounded=0;orthogonalLoop=1;jettySize=auto;html=1;entryX=1;entryY=0.5;entryDx=0;entryDy=0;startArrow=none;startFill=0;endArrow=none;endFill=0;" parent="1" source="N7SgdnH1DWZHhyA-m8kh-19" target="N7SgdnH1DWZHhyA-m8kh-15" edge="1">
                    <mxGeometry relative="1" as="geometry"/>
                </mxCell>
                <mxCell id="N7SgdnH1DWZHhyA-m8kh-19" value="&lt;div&gt;formado&lt;/div&gt;" style="shape=rhombus;perimeter=rhombusPerimeter;whiteSpace=wrap;html=1;align=center;" parent="1" vertex="1">
                    <mxGeometry y="260" width="120" height="60" as="geometry"/>
                </mxCell>
                <mxCell id="N7SgdnH1DWZHhyA-m8kh-25" style="edgeStyle=orthogonalEdgeStyle;rounded=0;orthogonalLoop=1;jettySize=auto;html=1;endArrow=none;endFill=0;" parent="1" source="N7SgdnH1DWZHhyA-m8kh-24" target="N7SgdnH1DWZHhyA-m8kh-13" edge="1">
                    <mxGeometry relative="1" as="geometry"/>
                </mxCell>
                <mxCell id="N7SgdnH1DWZHhyA-m8kh-62" style="edgeStyle=orthogonalEdgeStyle;rounded=0;orthogonalLoop=1;jettySize=auto;html=1;endArrow=none;endFill=0;" parent="1" source="N7SgdnH1DWZHhyA-m8kh-24" target="N7SgdnH1DWZHhyA-m8kh-41" edge="1">
                    <mxGeometry relative="1" as="geometry"/>
                </mxCell>
                <mxCell id="N7SgdnH1DWZHhyA-m8kh-63" style="edgeStyle=orthogonalEdgeStyle;rounded=0;orthogonalLoop=1;jettySize=auto;html=1;entryX=0.5;entryY=0;entryDx=0;entryDy=0;endArrow=none;endFill=0;" parent="1" source="N7SgdnH1DWZHhyA-m8kh-24" target="N7SgdnH1DWZHhyA-m8kh-45" edge="1">
                    <mxGeometry relative="1" as="geometry">
                        <Array as="points">
                            <mxPoint x="-160" y="520"/>
                        </Array>
                    </mxGeometry>
                </mxCell>
                <mxCell id="N7SgdnH1DWZHhyA-m8kh-64" style="edgeStyle=orthogonalEdgeStyle;rounded=0;orthogonalLoop=1;jettySize=auto;html=1;endArrow=none;endFill=0;" parent="1" source="N7SgdnH1DWZHhyA-m8kh-24" target="N7SgdnH1DWZHhyA-m8kh-58" edge="1">
                    <mxGeometry relative="1" as="geometry">
                        <Array as="points">
                            <mxPoint x="200" y="520"/>
                        </Array>
                    </mxGeometry>
                </mxCell>
                <mxCell id="N7SgdnH1DWZHhyA-m8kh-65" style="edgeStyle=orthogonalEdgeStyle;rounded=0;orthogonalLoop=1;jettySize=auto;html=1;endArrow=none;endFill=0;" parent="1" source="N7SgdnH1DWZHhyA-m8kh-24" target="N7SgdnH1DWZHhyA-m8kh-50" edge="1">
                    <mxGeometry relative="1" as="geometry"/>
                </mxCell>
                <mxCell id="N7SgdnH1DWZHhyA-m8kh-66" style="edgeStyle=orthogonalEdgeStyle;rounded=0;orthogonalLoop=1;jettySize=auto;html=1;endArrow=none;endFill=0;" parent="1" source="N7SgdnH1DWZHhyA-m8kh-24" target="N7SgdnH1DWZHhyA-m8kh-54" edge="1">
                    <mxGeometry relative="1" as="geometry">
                        <Array as="points">
                            <mxPoint x="80" y="520"/>
                        </Array>
                    </mxGeometry>
                </mxCell>
                <mxCell id="N7SgdnH1DWZHhyA-m8kh-71" style="edgeStyle=orthogonalEdgeStyle;rounded=0;orthogonalLoop=1;jettySize=auto;html=1;entryX=0.5;entryY=0;entryDx=0;entryDy=0;endArrow=none;endFill=0;" parent="1" source="N7SgdnH1DWZHhyA-m8kh-24" target="N7SgdnH1DWZHhyA-m8kh-67" edge="1">
                    <mxGeometry relative="1" as="geometry">
                        <Array as="points">
                            <mxPoint x="-50" y="520"/>
                        </Array>
                    </mxGeometry>
                </mxCell>
                <mxCell id="N7SgdnH1DWZHhyA-m8kh-24" value="&lt;div&gt;es&lt;/div&gt;" style="triangle;whiteSpace=wrap;html=1;direction=south;" parent="1" vertex="1">
                    <mxGeometry x="-140" y="490" width="80" height="60" as="geometry"/>
                </mxCell>
                <mxCell id="N7SgdnH1DWZHhyA-m8kh-41" value="teclado" style="swimlane;fontStyle=0;childLayout=stackLayout;horizontal=1;startSize=26;horizontalStack=0;resizeParent=1;resizeParentMax=0;resizeLast=0;collapsible=1;marginBottom=0;align=center;fontSize=14;" parent="1" vertex="1">
                    <mxGeometry x="-310" y="630" width="90" height="56" as="geometry"/>
                </mxCell>
                <mxCell id="N7SgdnH1DWZHhyA-m8kh-45" value="raton" style="swimlane;fontStyle=0;childLayout=stackLayout;horizontal=1;startSize=26;horizontalStack=0;resizeParent=1;resizeParentMax=0;resizeLast=0;collapsible=1;marginBottom=0;align=center;fontSize=14;" parent="1" vertex="1">
                    <mxGeometry x="-200" y="630" width="80" height="56" as="geometry"/>
                </mxCell>
                <mxCell id="N7SgdnH1DWZHhyA-m8kh-50" value="ram" style="swimlane;fontStyle=0;childLayout=stackLayout;horizontal=1;startSize=26;horizontalStack=0;resizeParent=1;resizeParentMax=0;resizeLast=0;collapsible=1;marginBottom=0;align=center;fontSize=14;" parent="1" vertex="1">
                    <mxGeometry x="290" y="630" width="100" height="86" as="geometry"/>
                </mxCell>
                <mxCell id="N7SgdnH1DWZHhyA-m8kh-51" value="capacidad" style="text;strokeColor=none;fillColor=none;spacingLeft=4;spacingRight=4;overflow=hidden;rotatable=0;points=[[0,0.5],[1,0.5]];portConstraint=eastwest;fontSize=12;" parent="N7SgdnH1DWZHhyA-m8kh-50" vertex="1">
                    <mxGeometry y="26" width="100" height="30" as="geometry"/>
                </mxCell>
                <mxCell id="N7SgdnH1DWZHhyA-m8kh-52" value="tipo" style="text;strokeColor=none;fillColor=none;spacingLeft=4;spacingRight=4;overflow=hidden;rotatable=0;points=[[0,0.5],[1,0.5]];portConstraint=eastwest;fontSize=12;" parent="N7SgdnH1DWZHhyA-m8kh-50" vertex="1">
                    <mxGeometry y="56" width="100" height="30" as="geometry"/>
                </mxCell>
                <mxCell id="N7SgdnH1DWZHhyA-m8kh-54" value="disco" style="swimlane;fontStyle=0;childLayout=stackLayout;horizontal=1;startSize=26;horizontalStack=0;resizeParent=1;resizeParentMax=0;resizeLast=0;collapsible=1;marginBottom=0;align=center;fontSize=14;" parent="1" vertex="1">
                    <mxGeometry x="30" y="630" width="100" height="116" as="geometry"/>
                </mxCell>
                <mxCell id="N7SgdnH1DWZHhyA-m8kh-55" value="capacidad" style="text;strokeColor=none;fillColor=none;spacingLeft=4;spacingRight=4;overflow=hidden;rotatable=0;points=[[0,0.5],[1,0.5]];portConstraint=eastwest;fontSize=12;" parent="N7SgdnH1DWZHhyA-m8kh-54" vertex="1">
                    <mxGeometry y="26" width="100" height="30" as="geometry"/>
                </mxCell>
                <mxCell id="N7SgdnH1DWZHhyA-m8kh-56" value="tipo" style="text;strokeColor=none;fillColor=none;spacingLeft=4;spacingRight=4;overflow=hidden;rotatable=0;points=[[0,0.5],[1,0.5]];portConstraint=eastwest;fontSize=12;" parent="N7SgdnH1DWZHhyA-m8kh-54" vertex="1">
                    <mxGeometry y="56" width="100" height="30" as="geometry"/>
                </mxCell>
                <mxCell id="N7SgdnH1DWZHhyA-m8kh-160" value="conector" style="text;strokeColor=none;fillColor=none;spacingLeft=4;spacingRight=4;overflow=hidden;rotatable=0;points=[[0,0.5],[1,0.5]];portConstraint=eastwest;fontSize=12;" parent="N7SgdnH1DWZHhyA-m8kh-54" vertex="1">
                    <mxGeometry y="86" width="100" height="30" as="geometry"/>
                </mxCell>
                <mxCell id="N7SgdnH1DWZHhyA-m8kh-58" value="placa_base" style="swimlane;fontStyle=0;childLayout=stackLayout;horizontal=1;startSize=26;horizontalStack=0;resizeParent=1;resizeParentMax=0;resizeLast=0;collapsible=1;marginBottom=0;align=center;fontSize=14;" parent="1" vertex="1">
                    <mxGeometry x="150" y="630" width="120" height="56" as="geometry"/>
                </mxCell>
                <mxCell id="N7SgdnH1DWZHhyA-m8kh-67" value="monitor" style="swimlane;fontStyle=0;childLayout=stackLayout;horizontal=1;startSize=26;horizontalStack=0;resizeParent=1;resizeParentMax=0;resizeLast=0;collapsible=1;marginBottom=0;align=center;fontSize=14;" parent="1" vertex="1">
                    <mxGeometry x="-100" y="630" width="100" height="56" as="geometry"/>
                </mxCell>
                <mxCell id="N7SgdnH1DWZHhyA-m8kh-68" value="resolucion" style="text;strokeColor=none;fillColor=none;spacingLeft=4;spacingRight=4;overflow=hidden;rotatable=0;points=[[0,0.5],[1,0.5]];portConstraint=eastwest;fontSize=12;" parent="N7SgdnH1DWZHhyA-m8kh-67" vertex="1">
                    <mxGeometry y="26" width="100" height="30" as="geometry"/>
                </mxCell>
                <mxCell id="N7SgdnH1DWZHhyA-m8kh-138" style="edgeStyle=orthogonalEdgeStyle;rounded=0;orthogonalLoop=1;jettySize=auto;html=1;entryX=0.5;entryY=1;entryDx=0;entryDy=0;startArrow=none;startFill=0;endArrow=none;endFill=0;" parent="1" source="N7SgdnH1DWZHhyA-m8kh-72" target="N7SgdnH1DWZHhyA-m8kh-83" edge="1">
                    <mxGeometry relative="1" as="geometry">
                        <Array as="points">
                            <mxPoint x="270" y="209"/>
                        </Array>
                    </mxGeometry>
                </mxCell>
                <mxCell id="N7SgdnH1DWZHhyA-m8kh-72" value="sobremesa" style="swimlane;fontStyle=0;childLayout=stackLayout;horizontal=1;startSize=26;horizontalStack=0;resizeParent=1;resizeParentMax=0;resizeLast=0;collapsible=1;marginBottom=0;align=center;fontSize=14;" parent="1" vertex="1">
                    <mxGeometry x="360" y="181" width="160" height="56" as="geometry"/>
                </mxCell>
                <mxCell id="N7SgdnH1DWZHhyA-m8kh-75" value="tamano" style="text;strokeColor=none;fillColor=none;spacingLeft=4;spacingRight=4;overflow=hidden;rotatable=0;points=[[0,0.5],[1,0.5]];portConstraint=eastwest;fontSize=12;" parent="N7SgdnH1DWZHhyA-m8kh-72" vertex="1">
                    <mxGeometry y="26" width="160" height="30" as="geometry"/>
                </mxCell>
                <mxCell id="N7SgdnH1DWZHhyA-m8kh-137" style="edgeStyle=orthogonalEdgeStyle;rounded=0;orthogonalLoop=1;jettySize=auto;html=1;entryX=0.5;entryY=0;entryDx=0;entryDy=0;startArrow=none;startFill=0;endArrow=none;endFill=0;" parent="1" source="N7SgdnH1DWZHhyA-m8kh-77" target="N7SgdnH1DWZHhyA-m8kh-83" edge="1">
                    <mxGeometry relative="1" as="geometry">
                        <Array as="points">
                            <mxPoint x="270" y="70"/>
                        </Array>
                    </mxGeometry>
                </mxCell>
                <mxCell id="N7SgdnH1DWZHhyA-m8kh-77" value="portatil" style="swimlane;fontStyle=0;childLayout=stackLayout;horizontal=1;startSize=26;horizontalStack=0;resizeParent=1;resizeParentMax=0;resizeLast=0;collapsible=1;marginBottom=0;align=center;fontSize=14;" parent="1" vertex="1">
                    <mxGeometry x="360" y="50" width="160" height="56" as="geometry"/>
                </mxCell>
                <mxCell id="2" value="estado" style="text;strokeColor=none;fillColor=none;spacingLeft=4;spacingRight=4;overflow=hidden;rotatable=0;points=[[0,0.5],[1,0.5]];portConstraint=eastwest;fontSize=12;" vertex="1" parent="N7SgdnH1DWZHhyA-m8kh-77">
                    <mxGeometry y="26" width="160" height="30" as="geometry"/>
                </mxCell>
                <mxCell id="N7SgdnH1DWZHhyA-m8kh-84" style="edgeStyle=orthogonalEdgeStyle;rounded=0;orthogonalLoop=1;jettySize=auto;html=1;endArrow=none;endFill=0;" parent="1" source="N7SgdnH1DWZHhyA-m8kh-83" target="N7SgdnH1DWZHhyA-m8kh-8" edge="1">
                    <mxGeometry relative="1" as="geometry">
                        <Array as="points">
                            <mxPoint x="200" y="128"/>
                            <mxPoint x="200" y="128"/>
                        </Array>
                    </mxGeometry>
                </mxCell>
                <mxCell id="N7SgdnH1DWZHhyA-m8kh-83" value="" style="triangle;whiteSpace=wrap;html=1;" parent="1" vertex="1">
                    <mxGeometry x="240" y="88" width="60" height="80" as="geometry"/>
                </mxCell>
                <mxCell id="N7SgdnH1DWZHhyA-m8kh-87" value="transformador" style="swimlane;fontStyle=0;childLayout=stackLayout;horizontal=1;startSize=26;horizontalStack=0;resizeParent=1;resizeParentMax=0;resizeLast=0;collapsible=1;marginBottom=0;align=center;fontSize=14;" parent="1" vertex="1">
                    <mxGeometry x="360" y="-198" width="160" height="116" as="geometry"/>
                </mxCell>
                <mxCell id="N7SgdnH1DWZHhyA-m8kh-151" value="id" style="text;strokeColor=none;fillColor=none;spacingLeft=4;spacingRight=4;overflow=hidden;rotatable=0;points=[[0,0.5],[1,0.5]];portConstraint=eastwest;fontSize=12;" parent="N7SgdnH1DWZHhyA-m8kh-87" vertex="1">
                    <mxGeometry y="26" width="160" height="30" as="geometry"/>
                </mxCell>
                <mxCell id="N7SgdnH1DWZHhyA-m8kh-88" value="voltaje" style="text;strokeColor=none;fillColor=none;spacingLeft=4;spacingRight=4;overflow=hidden;rotatable=0;points=[[0,0.5],[1,0.5]];portConstraint=eastwest;fontSize=12;" parent="N7SgdnH1DWZHhyA-m8kh-87" vertex="1">
                    <mxGeometry y="56" width="160" height="30" as="geometry"/>
                </mxCell>
                <mxCell id="N7SgdnH1DWZHhyA-m8kh-89" value="amperaje" style="text;strokeColor=none;fillColor=none;spacingLeft=4;spacingRight=4;overflow=hidden;rotatable=0;points=[[0,0.5],[1,0.5]];portConstraint=eastwest;fontSize=12;" parent="N7SgdnH1DWZHhyA-m8kh-87" vertex="1">
                    <mxGeometry y="86" width="160" height="30" as="geometry"/>
                </mxCell>
                <mxCell id="N7SgdnH1DWZHhyA-m8kh-143" style="edgeStyle=orthogonalEdgeStyle;rounded=0;orthogonalLoop=1;jettySize=auto;html=1;entryX=0.5;entryY=1;entryDx=0;entryDy=0;startArrow=none;startFill=0;endArrow=none;endFill=0;" parent="1" source="N7SgdnH1DWZHhyA-m8kh-93" target="N7SgdnH1DWZHhyA-m8kh-24" edge="1">
                    <mxGeometry relative="1" as="geometry">
                        <Array as="points">
                            <mxPoint x="-500" y="520"/>
                        </Array>
                    </mxGeometry>
                </mxCell>
                <mxCell id="N7SgdnH1DWZHhyA-m8kh-93" value="impresora" style="swimlane;fontStyle=0;childLayout=stackLayout;horizontal=1;startSize=26;horizontalStack=0;resizeParent=1;resizeParentMax=0;resizeLast=0;collapsible=1;marginBottom=0;align=center;fontSize=14;" parent="1" vertex="1">
                    <mxGeometry x="-560" y="630" width="110" height="86" as="geometry"/>
                </mxCell>
                <mxCell id="N7SgdnH1DWZHhyA-m8kh-94" value="tinta" style="text;strokeColor=none;fillColor=none;spacingLeft=4;spacingRight=4;overflow=hidden;rotatable=0;points=[[0,0.5],[1,0.5]];portConstraint=eastwest;fontSize=12;" parent="N7SgdnH1DWZHhyA-m8kh-93" vertex="1">
                    <mxGeometry y="26" width="110" height="30" as="geometry"/>
                </mxCell>
                <mxCell id="N7SgdnH1DWZHhyA-m8kh-98" value="escaner&#10;" style="text;strokeColor=none;fillColor=none;spacingLeft=4;spacingRight=4;overflow=hidden;rotatable=0;points=[[0,0.5],[1,0.5]];portConstraint=eastwest;fontSize=12;" parent="N7SgdnH1DWZHhyA-m8kh-93" vertex="1">
                    <mxGeometry y="56" width="110" height="30" as="geometry"/>
                </mxCell>
                <mxCell id="N7SgdnH1DWZHhyA-m8kh-144" style="edgeStyle=orthogonalEdgeStyle;rounded=0;orthogonalLoop=1;jettySize=auto;html=1;startArrow=none;startFill=0;endArrow=none;endFill=0;entryX=0.5;entryY=1;entryDx=0;entryDy=0;" parent="1" source="N7SgdnH1DWZHhyA-m8kh-99" target="N7SgdnH1DWZHhyA-m8kh-24" edge="1">
                    <mxGeometry relative="1" as="geometry">
                        <mxPoint x="-350.0000000000002" y="520" as="targetPoint"/>
                        <Array as="points">
                            <mxPoint x="-380" y="520"/>
                        </Array>
                    </mxGeometry>
                </mxCell>
                <mxCell id="N7SgdnH1DWZHhyA-m8kh-99" value="escaner" style="swimlane;fontStyle=0;childLayout=stackLayout;horizontal=1;startSize=26;horizontalStack=0;resizeParent=1;resizeParentMax=0;resizeLast=0;collapsible=1;marginBottom=0;align=center;fontSize=14;" parent="1" vertex="1">
                    <mxGeometry x="-430" y="630" width="100" height="56" as="geometry"/>
                </mxCell>
                <mxCell id="N7SgdnH1DWZHhyA-m8kh-104" value="cable" style="swimlane;fontStyle=0;childLayout=stackLayout;horizontal=1;startSize=26;horizontalStack=0;resizeParent=1;resizeParentMax=0;resizeLast=0;collapsible=1;marginBottom=0;align=center;fontSize=14;" parent="1" vertex="1">
                    <mxGeometry x="-750" y="-110" width="160" height="116" as="geometry"/>
                </mxCell>
                <mxCell id="N7SgdnH1DWZHhyA-m8kh-106" value="id" style="text;strokeColor=none;fillColor=none;spacingLeft=4;spacingRight=4;overflow=hidden;rotatable=0;points=[[0,0.5],[1,0.5]];portConstraint=eastwest;fontSize=12;" parent="N7SgdnH1DWZHhyA-m8kh-104" vertex="1">
                    <mxGeometry y="26" width="160" height="30" as="geometry"/>
                </mxCell>
                <mxCell id="N7SgdnH1DWZHhyA-m8kh-107" value="tipo" style="text;strokeColor=none;fillColor=none;spacingLeft=4;spacingRight=4;overflow=hidden;rotatable=0;points=[[0,0.5],[1,0.5]];portConstraint=eastwest;fontSize=12;" parent="N7SgdnH1DWZHhyA-m8kh-104" vertex="1">
                    <mxGeometry y="56" width="160" height="30" as="geometry"/>
                </mxCell>
                <mxCell id="N7SgdnH1DWZHhyA-m8kh-110" value="version_tipo" style="text;strokeColor=none;fillColor=none;spacingLeft=4;spacingRight=4;overflow=hidden;rotatable=0;points=[[0,0.5],[1,0.5]];portConstraint=eastwest;fontSize=12;" parent="N7SgdnH1DWZHhyA-m8kh-104" vertex="1">
                    <mxGeometry y="86" width="160" height="30" as="geometry"/>
                </mxCell>
                <mxCell id="N7SgdnH1DWZHhyA-m8kh-134" style="edgeStyle=orthogonalEdgeStyle;rounded=0;orthogonalLoop=1;jettySize=auto;html=1;startArrow=none;startFill=0;endArrow=none;endFill=0;" parent="1" source="N7SgdnH1DWZHhyA-m8kh-111" target="N7SgdnH1DWZHhyA-m8kh-133" edge="1">
                    <mxGeometry relative="1" as="geometry"/>
                </mxCell>
                <mxCell id="N7SgdnH1DWZHhyA-m8kh-111" value="localizacion" style="swimlane;fontStyle=0;childLayout=stackLayout;horizontal=1;startSize=26;horizontalStack=0;resizeParent=1;resizeParentMax=0;resizeLast=0;collapsible=1;marginBottom=0;align=center;fontSize=14;" parent="1" vertex="1">
                    <mxGeometry x="-750" y="-182" width="160" height="56" as="geometry"/>
                </mxCell>
                <mxCell id="N7SgdnH1DWZHhyA-m8kh-112" value="nombre" style="text;strokeColor=none;fillColor=none;spacingLeft=4;spacingRight=4;overflow=hidden;rotatable=0;points=[[0,0.5],[1,0.5]];portConstraint=eastwest;fontSize=12;" parent="N7SgdnH1DWZHhyA-m8kh-111" vertex="1">
                    <mxGeometry y="26" width="160" height="30" as="geometry"/>
                </mxCell>
                <mxCell id="N7SgdnH1DWZHhyA-m8kh-126" style="edgeStyle=orthogonalEdgeStyle;rounded=0;orthogonalLoop=1;jettySize=auto;html=1;endArrow=none;endFill=0;startArrow=classic;startFill=1;" parent="1" source="N7SgdnH1DWZHhyA-m8kh-115" target="N7SgdnH1DWZHhyA-m8kh-125" edge="1">
                    <mxGeometry relative="1" as="geometry">
                        <Array as="points">
                            <mxPoint x="-230" y="80"/>
                            <mxPoint x="-230" y="80"/>
                        </Array>
                    </mxGeometry>
                </mxCell>
                <mxCell id="N7SgdnH1DWZHhyA-m8kh-129" style="edgeStyle=orthogonalEdgeStyle;rounded=0;orthogonalLoop=1;jettySize=auto;html=1;startArrow=classic;startFill=1;endArrow=none;endFill=0;" parent="1" source="N7SgdnH1DWZHhyA-m8kh-115" target="N7SgdnH1DWZHhyA-m8kh-128" edge="1">
                    <mxGeometry relative="1" as="geometry"/>
                </mxCell>
                <mxCell id="N7SgdnH1DWZHhyA-m8kh-115" value="recogida" style="swimlane;fontStyle=0;childLayout=stackLayout;horizontal=1;startSize=26;horizontalStack=0;resizeParent=1;resizeParentMax=0;resizeLast=0;collapsible=1;marginBottom=0;align=center;fontSize=14;" parent="1" vertex="1">
                    <mxGeometry x="-310" y="-95" width="160" height="86" as="geometry"/>
                </mxCell>
                <mxCell id="N7SgdnH1DWZHhyA-m8kh-145" value="id" style="text;strokeColor=none;fillColor=none;spacingLeft=4;spacingRight=4;overflow=hidden;rotatable=0;points=[[0,0.5],[1,0.5]];portConstraint=eastwest;fontSize=12;" parent="N7SgdnH1DWZHhyA-m8kh-115" vertex="1">
                    <mxGeometry y="26" width="160" height="30" as="geometry"/>
                </mxCell>
                <mxCell id="N7SgdnH1DWZHhyA-m8kh-116" value="fecha" style="text;strokeColor=none;fillColor=none;spacingLeft=4;spacingRight=4;overflow=hidden;rotatable=0;points=[[0,0.5],[1,0.5]];portConstraint=eastwest;fontSize=12;" parent="N7SgdnH1DWZHhyA-m8kh-115" vertex="1">
                    <mxGeometry y="56" width="160" height="30" as="geometry"/>
                </mxCell>
                <mxCell id="N7SgdnH1DWZHhyA-m8kh-123" style="edgeStyle=orthogonalEdgeStyle;rounded=0;orthogonalLoop=1;jettySize=auto;html=1;endArrow=none;endFill=0;" parent="1" source="N7SgdnH1DWZHhyA-m8kh-122" target="N7SgdnH1DWZHhyA-m8kh-8" edge="1">
                    <mxGeometry relative="1" as="geometry"/>
                </mxCell>
                <mxCell id="N7SgdnH1DWZHhyA-m8kh-124" style="edgeStyle=orthogonalEdgeStyle;rounded=0;orthogonalLoop=1;jettySize=auto;html=1;endArrow=classic;endFill=1;startArrow=none;startFill=0;" parent="1" source="N7SgdnH1DWZHhyA-m8kh-122" target="N7SgdnH1DWZHhyA-m8kh-115" edge="1">
                    <mxGeometry relative="1" as="geometry"/>
                </mxCell>
                <mxCell id="N7SgdnH1DWZHhyA-m8kh-122" value="contiene_ordenador" style="shape=rhombus;perimeter=rhombusPerimeter;whiteSpace=wrap;html=1;align=center;" parent="1" vertex="1">
                    <mxGeometry x="-15" y="-82" width="150" height="60" as="geometry"/>
                </mxCell>
                <mxCell id="N7SgdnH1DWZHhyA-m8kh-127" style="edgeStyle=orthogonalEdgeStyle;rounded=0;orthogonalLoop=1;jettySize=auto;html=1;endArrow=none;endFill=0;entryX=0;entryY=0.5;entryDx=0;entryDy=0;" parent="1" source="N7SgdnH1DWZHhyA-m8kh-125" target="N7SgdnH1DWZHhyA-m8kh-15" edge="1">
                    <mxGeometry relative="1" as="geometry">
                        <Array as="points">
                            <mxPoint x="-230" y="351"/>
                        </Array>
                    </mxGeometry>
                </mxCell>
                <mxCell id="N7SgdnH1DWZHhyA-m8kh-125" value="&lt;div&gt;contiene_componente&lt;/div&gt;" style="shape=rhombus;perimeter=rhombusPerimeter;whiteSpace=wrap;html=1;align=center;" parent="1" vertex="1">
                    <mxGeometry x="-335" y="20" width="210" height="60" as="geometry"/>
                </mxCell>
                <mxCell id="N7SgdnH1DWZHhyA-m8kh-132" style="edgeStyle=orthogonalEdgeStyle;rounded=0;orthogonalLoop=1;jettySize=auto;html=1;startArrow=none;startFill=0;endArrow=none;endFill=0;" parent="1" source="N7SgdnH1DWZHhyA-m8kh-128" target="N7SgdnH1DWZHhyA-m8kh-104" edge="1">
                    <mxGeometry relative="1" as="geometry"/>
                </mxCell>
                <mxCell id="N7SgdnH1DWZHhyA-m8kh-128" value="contiene_cable" style="shape=rhombus;perimeter=rhombusPerimeter;whiteSpace=wrap;html=1;align=center;" parent="1" vertex="1">
                    <mxGeometry x="-505" y="-82" width="135" height="60" as="geometry"/>
                </mxCell>
                <mxCell id="N7SgdnH1DWZHhyA-m8kh-135" style="edgeStyle=orthogonalEdgeStyle;rounded=0;orthogonalLoop=1;jettySize=auto;html=1;startArrow=none;startFill=0;endArrow=none;endFill=0;" parent="1" source="N7SgdnH1DWZHhyA-m8kh-133" target="N7SgdnH1DWZHhyA-m8kh-115" edge="1">
                    <mxGeometry relative="1" as="geometry">
                        <Array as="points">
                            <mxPoint x="-230" y="-154"/>
                        </Array>
                    </mxGeometry>
                </mxCell>
                <mxCell id="N7SgdnH1DWZHhyA-m8kh-133" value="en" style="shape=rhombus;perimeter=rhombusPerimeter;whiteSpace=wrap;html=1;align=center;" parent="1" vertex="1">
                    <mxGeometry x="-497.5" y="-184" width="120" height="60" as="geometry"/>
                </mxCell>
                <mxCell id="N7SgdnH1DWZHhyA-m8kh-148" style="edgeStyle=orthogonalEdgeStyle;rounded=0;orthogonalLoop=1;jettySize=auto;html=1;startArrow=none;startFill=0;endArrow=none;endFill=0;entryX=0.502;entryY=1.011;entryDx=0;entryDy=0;entryPerimeter=0;" parent="1" source="N7SgdnH1DWZHhyA-m8kh-146" target="N7SgdnH1DWZHhyA-m8kh-89" edge="1">
                    <mxGeometry relative="1" as="geometry">
                        <mxPoint x="580" y="-80" as="targetPoint"/>
                        <Array as="points">
                            <mxPoint x="440" y="-74"/>
                        </Array>
                    </mxGeometry>
                </mxCell>
                <mxCell id="N7SgdnH1DWZHhyA-m8kh-149" style="edgeStyle=orthogonalEdgeStyle;rounded=0;orthogonalLoop=1;jettySize=auto;html=1;startArrow=none;startFill=0;endArrow=none;endFill=0;" parent="1" source="N7SgdnH1DWZHhyA-m8kh-146" target="N7SgdnH1DWZHhyA-m8kh-77" edge="1">
                    <mxGeometry relative="1" as="geometry"/>
                </mxCell>
                <mxCell id="N7SgdnH1DWZHhyA-m8kh-146" value="corresponde_portatil" style="shape=rhombus;perimeter=rhombusPerimeter;whiteSpace=wrap;html=1;align=center;" parent="1" vertex="1">
                    <mxGeometry x="360" y="-54" width="160" height="60" as="geometry"/>
                </mxCell>
                <mxCell id="N7SgdnH1DWZHhyA-m8kh-153" style="edgeStyle=orthogonalEdgeStyle;rounded=0;orthogonalLoop=1;jettySize=auto;html=1;entryX=1;entryY=0.5;entryDx=0;entryDy=0;startArrow=none;startFill=0;endArrow=none;endFill=0;" parent="1" source="N7SgdnH1DWZHhyA-m8kh-152" target="N7SgdnH1DWZHhyA-m8kh-49" edge="1">
                    <mxGeometry relative="1" as="geometry"/>
                </mxCell>
                <mxCell id="N7SgdnH1DWZHhyA-m8kh-154" style="edgeStyle=orthogonalEdgeStyle;rounded=0;orthogonalLoop=1;jettySize=auto;html=1;startArrow=none;startFill=0;endArrow=none;endFill=0;" parent="1" source="N7SgdnH1DWZHhyA-m8kh-152" target="N7SgdnH1DWZHhyA-m8kh-87" edge="1">
                    <mxGeometry relative="1" as="geometry">
                        <Array as="points">
                            <mxPoint x="600" y="-140"/>
                        </Array>
                    </mxGeometry>
                </mxCell>
                <mxCell id="N7SgdnH1DWZHhyA-m8kh-152" value="corresponde_componente" style="shape=rhombus;perimeter=rhombusPerimeter;whiteSpace=wrap;html=1;align=center;" parent="1" vertex="1">
                    <mxGeometry x="500" y="349" width="200" height="60" as="geometry"/>
                </mxCell>
                <mxCell id="N7SgdnH1DWZHhyA-m8kh-158" style="edgeStyle=orthogonalEdgeStyle;rounded=0;orthogonalLoop=1;jettySize=auto;html=1;entryX=0;entryY=0.5;entryDx=0;entryDy=0;startArrow=none;startFill=0;endArrow=none;endFill=0;" parent="1" source="N7SgdnH1DWZHhyA-m8kh-157" target="N7SgdnH1DWZHhyA-m8kh-151" edge="1">
                    <mxGeometry relative="1" as="geometry"/>
                </mxCell>
                <mxCell id="N7SgdnH1DWZHhyA-m8kh-159" style="edgeStyle=orthogonalEdgeStyle;rounded=0;orthogonalLoop=1;jettySize=auto;html=1;entryX=0.75;entryY=0;entryDx=0;entryDy=0;startArrow=none;startFill=0;endArrow=classic;endFill=1;" parent="1" source="N7SgdnH1DWZHhyA-m8kh-157" target="N7SgdnH1DWZHhyA-m8kh-115" edge="1">
                    <mxGeometry relative="1" as="geometry"/>
                </mxCell>
                <mxCell id="N7SgdnH1DWZHhyA-m8kh-157" value="&lt;div&gt;contiene_transformador&lt;/div&gt;" style="shape=rhombus;perimeter=rhombusPerimeter;whiteSpace=wrap;html=1;align=center;" parent="1" vertex="1">
                    <mxGeometry x="-90" y="-187" width="210" height="60" as="geometry"/>
                </mxCell>
            </root>
        </mxGraphModel>
    </diagram>
</mxfile>